<?xml version="1.0" encoding="UTF-8"?>
<!DOCTYPE svg PUBLIC "-//W3C//DTD SVG 1.1//EN" "http://www.w3.org/Graphics/SVG/1.1/DTD/svg11.dtd">
<!-- Creator: CorelDRAW -->
<svg xmlns="http://www.w3.org/2000/svg" xml:space="preserve" width="30mm" height="30mm" version="1.1" style="shape-rendering:geometricPrecision; text-rendering:geometricPrecision; image-rendering:optimizeQuality; fill-rule:evenodd; clip-rule:evenodd"
viewBox="0 0 3000000 3000000"
 xmlns:xlink="http://www.w3.org/1999/xlink"
 xmlns:xodm="http://www.corel.com/coreldraw/odm/2003">
 <defs>
  <style type="text/css">
   <![CDATA[
    .fil0 {fill:black}
   ]]>
  </style>
 </defs>
 <g id="Capa_x0020_1">
  <metadata id="CorelCorpID_0Corel-Layer"/>
  <path class="fil0" d="M783390 1337560l536110 0c-2670,7000 -5180,14070 -7480,21210l-9900 30700 -518730 0c-14280,0 -25950,-11670 -25950,-25950l0 -10c0,-14280 11670,-25950 25950,-25950zm1601570 -855660l133240 133220c84900,-84890 169670,-169730 254560,-254610 18310,-18320 27490,-42460 27500,-66580l-90 -10c10,-24150 -9140,-48280 -27420,-66570 -18290,-18280 -42420,-27430 -66570,-27420l-10 -90c-24120,10 -48260,9190 -66580,27500 -84900,84910 -169740,169650 -254630,254560zm238180 148970l-51120 51120 0 2017140c0,57230 -23380,109230 -61050,146890 -37660,37670 -89660,61050 -146890,61050l-1742300 0c-57230,0 -109230,-23380 -146900,-61050 -37660,-37660 -61040,-89660 -61040,-146890l0 -2384120c0,-57230 23380,-109230 61040,-146890 37670,-37670 89670,-61050 146900,-61050l1742300 0c57230,0 109230,23380 146890,61050 11270,11260 21240,23810 29710,37390l46000 -46010c34880,-34880 80890,-52320 126870,-52330l100 -100c45980,0 92010,17470 126960,52420 34950,34950 52420,80980 52420,126960l-100 100c-10,45980 -17450,91990 -52330,126870 -72480,72480 -144970,144970 -217460,217450zm-147630 147640l-734920 734910c-36230,36240 -81170,63710 -129960,79470l-160530 51780c-26990,8700 -56220,1650 -76280,-18410 -20060,-20060 -27110,-49290 -18410,-76280l51780 -160510c10820,-33510 27180,-65210 48090,-93510l61260 61260c-11950,18080 -21450,37800 -28120,58450l-45720 141720 141710 -45730c35970,-11610 69110,-31870 95840,-58590l661900 -661910 -133230 -133230 -692380 699290 -61260 -61260c338910,-340740 677410,-681880 1016970,-1021950l-4620 0c-5680,-14200 -14210,-27000 -24880,-37670 -20220,-20210 -48070,-32770 -78670,-32770l-1742300 0c-30600,0 -58450,12560 -78670,32770 -20220,20220 -32770,48070 -32770,78670l0 2384120c0,30600 12550,58450 32770,78670 20220,20210 48070,32770 78670,32770l1742300 0c30600,0 58450,-12560 78670,-32770 20210,-20220 32760,-48070 32760,-78670l0 -1920620zm-72990 -47700l55330 -55340 -133240 -133240 -55340 55340 133250 133240zm-187630 1229770c22100,25930 19010,64940 -6920,87030 -5420,4690 -28880,26660 -124180,121350l-3710 3700c-39240,39020 -89990,60370 -141960,60370 -7530,0 -15060,-490 -22600,-1350 -71960,-8640 -128380,-56550 -147260,-124820 -1500,-5170 -3090,-10720 -4950,-16660 -5180,-17280 -11590,-38870 -17040,-65180 -3450,-16790 -10600,-29140 -18620,-32330 -8150,-3100 -26060,120 -49620,19370 -33840,27660 -61860,66170 -86670,100120 -5560,7650 -10990,15060 -16170,22100 -43340,57900 -109750,84430 -169370,67520 -39760,-11220 -69880,-36910 -87040,-74320 -30370,-66040 -11720,-153190 13580,-207760 8520,-18270 20380,-51350 4810,-67640 -24690,-26050 -84690,-26790 -156410,-2110 -126170,43460 -262330,194560 -303560,336900 -9500,32840 -43700,51720 -76410,42220 -32720,-9500 -51610,-43700 -42100,-76420 45440,-157270 200720,-357010 381950,-419460 123320,-42360 224920,-30500 286040,33690 22820,23830 70110,91720 17890,204680 -16660,36040 -22830,83950 -13330,104440 1840,3950 3340,5550 8510,7030 6670,1850 21850,-2590 36910,-22710 4940,-6680 10130,-13580 15320,-20860 27770,-38020 62210,-85310 108380,-122960 55670,-45430 118270,-59620 172100,-39000 48370,18630 83070,63320 95300,122690 4320,20870 9620,38780 14300,54460 2120,6900 3960,13320 5700,19250 7770,28030 32710,33950 43070,35180 21840,2600 44810,-6040 62840,-23950l3690 -3700c78030,-77530 118400,-116900 130980,-127770 25440,-22090 64330,-19010 86550,6920l0 -20zm-834520 593820c0,62170 50390,112560 112560,112560 62170,0 112560,-50390 112560,-112560 0,-62170 -50390,-112560 -112560,-112560 -62170,0 -112560,50390 -112560,112560zm677500 -1216840l144600 0c14280,0 25950,11670 25950,25950l0 10c0,14280 -11670,25950 -25950,25950l-196510 0 51910 -51910zm-1274480 -744460l1229700 0 -51650 51910 -1178050 0c-14280,0 -25950,-11670 -25950,-25950l0 -10c0,-14280 11670,-25950 25950,-25950zm0 372230l859600 0 -51610 51910 -807990 0c-14280,0 -25950,-11670 -25950,-25950l0 -10c0,-14280 11670,-25950 25950,-25950z"/>
 </g>
</svg>
