<?xml version="1.0" encoding="UTF-8"?>
<!DOCTYPE svg PUBLIC "-//W3C//DTD SVG 1.1//EN" "http://www.w3.org/Graphics/SVG/1.1/DTD/svg11.dtd">
<!-- Creator: CorelDRAW -->
<svg xmlns="http://www.w3.org/2000/svg" xml:space="preserve" width="30mm" height="30mm" version="1.1" style="shape-rendering:geometricPrecision; text-rendering:geometricPrecision; image-rendering:optimizeQuality; fill-rule:evenodd; clip-rule:evenodd"
viewBox="0 0 3000000 3000000"
 xmlns:xlink="http://www.w3.org/1999/xlink"
 xmlns:xodm="http://www.corel.com/coreldraw/odm/2003">
 <defs>
  <style type="text/css">
   <![CDATA[
    .fil0 {fill:black;fill-rule:nonzero}
   ]]>
  </style>
 </defs>
 <g id="Capa_x0020_1">
  <metadata id="CorelCorpID_0Corel-Layer"/>
  <path class="fil0" d="M2355390 697460l-97680 42380 111820 165210 58240 -135400c-29620,-17780 -54530,-42610 -72380,-72190zm-1459400 431330l-71160 -189530 -69140 189530 140300 0zm264040 289390l-153340 0 -56900 -149990 -244820 0 -54750 149990 -171310 0 266690 -686890 159950 0c91690,228970 183440,457930 275170,686890l-20690 0zm66930 -14030l0 -672860 161480 0 0 686890 -161480 0 0 -14030zm422120 860860c-12620,23690 -24240,45800 -33690,64800l-3270 6930c-35610,72940 -79680,163710 -150900,184970 -168670,50450 -323610,-304230 -340720,-344730l-4470 -10690c5510,-9950 10890,-18800 16080,-27760 5500,-8850 11080,-17610 16880,-26460 1240,-1410 2460,-3460 3460,-5180 53220,-77650 184970,-234940 357100,-189670 24730,6490 49960,17110 76220,32650 16390,9650 31150,20760 44960,32640 4700,4270 9160,8970 13840,13660 8160,7920 16390,16070 23690,24720 6430,7730 12420,15890 18540,24240 4160,5870 8650,11790 12610,17990 7920,12420 15580,25420 22810,39570 1000,1740 2030,3460 2650,5010 -19730,51860 -49450,107550 -75910,157270l120 40zm49820 -2074770c-65920,12880 -131710,32570 -195920,59190l-9660 3960c-4990,2230 -9640,4150 -14340,5890 -23490,8140 -41530,15060 -56370,20760 -46770,18300 -46770,18300 -127870,-5700l-18230 -5490c-235580,-88100 -549340,-109840 -757310,-17190l0 -1570c-15610,7680 -31070,16110 -46340,25180 -7500,4390 -14800,8850 -21920,13580l-3030 2030 -780 540 -2270 1500 -3000 2040 -2960 2040 -2990 2080c-21960,15180 -43420,31870 -64030,50070l-2580 2270 -5150 4610 -2580 2310 -4580 4220 -450 430c-25150,23300 -48080,47920 -68890,73680l400 0c-138680,171310 -220170,427750 -170520,757270l1730 11380c10120,67190 19960,132520 29880,196440l620 0c65870,424820 134670,786460 307910,1205050l6120 14840c43840,106640 117020,285420 244930,285420l10340 -30 9340 -3960c117210,-49770 160980,-162290 193120,-244320 21580,-55640 40810,-112020 59610,-166660 24540,-71730 48230,-141440 76720,-208170 64300,130870 195860,344340 369220,344340 20530,0 41290,-2960 62760,-9460 114250,-33570 171350,-151520 213280,-237700l3460 -6920c8640,-18000 20030,-39070 31950,-61640 12120,-22700 25540,-47920 38350,-74000 12600,40810 23680,82830 34600,124330 12120,46310 24420,94330 39070,139100 61260,188620 140910,383590 266580,396400 67250,6730 127600,-38070 181700,-133280 7490,-13110 14650,-26330 21520,-39650l-90400 -45190c-6020,11680 -12280,23250 -18800,34680 -30920,53930 -62760,86070 -83520,82610 -23190,-2230 -87290,-39180 -180510,-327030 -13930,-41800 -25240,-86290 -37650,-133290 -39810,-152820 -84570,-323640 -214890,-433540 -500,-430 -1010,-930 -1540,-1240 -16810,-14150 -34810,-27450 -54950,-39260 -200,0 -200,-310 -500,-310 -167170,-99600 -352330,-59420 -501470,102140 -23300,25420 -45800,53410 -67260,84880 -87790,128080 -136550,271070 -183440,409320 -18300,53600 -37140,109290 -58100,162700 -32460,83140 -62760,149860 -127100,182550 -57370,-14150 -118940,-163510 -142630,-221620l-6000 -14840c-166970,-402870 -235040,-754660 -299150,-1166250l-580 0c-10720,-68770 -21340,-139170 -32260,-211740l-1530 -11080c-44460,-294030 27920,-631830 274760,-797690 183550,-119940 521930,-111060 762460,-13690l0 850 7350 2120 150 70 7510 2150c100820,29730 116900,29930 188890,1740 13840,-5500 30920,-11810 53230,-19540 6920,-2730 14030,-5690 21260,-8660l8150 -3460c42200,-17440 85100,-31580 128190,-42470l28890 -110120zm837310 187200c116590,0 211100,94510 211100,211090 0,116580 -94510,211080 -211100,211080 -19730,0 -38820,-2700 -56920,-7770l-72430 168360 170950 252560c28320,-14130 60260,-22090 94060,-22090 116580,0 211090,94510 211090,211090 0,116580 -94510,211080 -211090,211080 -70480,0 -132890,-34550 -171220,-87650l-261430 139570c8600,23000 13310,47900 13310,73900 0,76760 -40980,143950 -102260,180900l143900 332140c18290,-5170 37600,-7940 57550,-7940 116580,0 211080,94510 211080,211090 0,116580 -94500,211080 -211080,211080 -116570,0 -211080,-94500 -211080,-211080 0,-76760 40980,-143960 102260,-180900l-143890 -332140c-18300,5170 -37600,7940 -57560,7940 -116570,0 -211090,-94510 -211090,-211090 0,-49330 16920,-94700 45290,-130630l-197720 -203700c-6870,-38480 2350,-45160 40170,-38980l197700 203680c35110,-26050 78590,-41450 125650,-41450 19740,0 38820,2710 56930,7770l244850 -569150 -137860 -203650 -402450 174640c-42180,4490 -53900,-20840 -22250,-51260l392830 -170460 -140990 -208310c-28330,14130 -60260,22080 -94070,22080 -35140,0 -68260,-8600 -97410,-23800l-171590 244100c-41950,16750 -48790,-1430 -45810,-32280l43840 -62350 127750 -181710c-41730,-38560 -67860,-93740 -67860,-155040 0,-116590 94510,-211090 211080,-211090 116580,0 211080,94500 211080,211090 0,62620 -27270,118880 -70590,157530l146910 217070 107270 -46560c-5200,-18320 -7980,-37670 -7980,-57670 0,-116580 94510,-211090 211080,-211090zm-386310 1180100c24720,14850 46170,34600 62960,57920l261350 -139540c-8670,-23070 -13420,-48060 -13420,-74160 0,-62620 27270,-118890 70600,-157540l-150840 -222860 -230650 536180z"/>
 </g>
</svg>
