<?xml version="1.0" encoding="UTF-8"?>
<!DOCTYPE svg PUBLIC "-//W3C//DTD SVG 1.1//EN" "http://www.w3.org/Graphics/SVG/1.1/DTD/svg11.dtd">
<!-- Creator: CorelDRAW -->
<svg xmlns="http://www.w3.org/2000/svg" xml:space="preserve" width="30mm" height="30mm" version="1.1" style="shape-rendering:geometricPrecision; text-rendering:geometricPrecision; image-rendering:optimizeQuality; fill-rule:evenodd; clip-rule:evenodd"
viewBox="0 0 3000000 3000000"
 xmlns:xlink="http://www.w3.org/1999/xlink"
 xmlns:xodm="http://www.corel.com/coreldraw/odm/2003">
 <defs>
  <style type="text/css">
   <![CDATA[
    .fil0 {fill:black;fill-rule:nonzero}
   ]]>
  </style>
 </defs>
 <g id="Capa_x0020_1">
  <metadata id="CorelCorpID_0Corel-Layer"/>
  <path class="fil0" d="M404860 107120l2176150 0c171540,0 311920,140350 311920,311890l0 857650c0,159800 -121820,292500 -277170,309930 10410,-65250 17860,-131100 21060,-197620 9870,-206560 -13010,-430850 -147770,-597110 -52250,-64420 -119890,-124110 -200110,-175700 -100170,-64380 -220830,-100240 -348170,-106650 -126280,-6360 -259250,16260 -385260,68510l-20090 8280c-64850,22580 -61290,34750 -137820,12070l-15600 -4690c-108780,-40440 -236230,-65020 -359410,-67810 -357420,-8180 -600040,192130 -676370,530990 -24640,109420 -29990,234430 -9040,373550l23610 154980c-150860,-21620 -267860,-152150 -267860,-308730l0 -857650c0,-171540 140380,-311890 311930,-311890zm2054990 1481430l-1943550 0c-11270,-61860 -26470,-140750 -26470,-180950 -19690,-130370 -11940,-270990 30600,-394470 36680,-106460 99270,-200120 192360,-262670 71210,-46530 172910,-69010 281390,-70940 110350,-1960 227190,17330 326560,54040l0 3000 37150 10640c46230,13600 73600,20520 99840,20750 27740,230 49720,-6550 84940,-20350 24410,-9250 48190,-17400 72140,-27670 103830,-42840 212750,-61700 315450,-57070 101630,4590 197250,32360 275570,82740 65220,42010 119690,89460 161170,139820 40540,49220 68770,101300 82570,153780 25110,94850 35520,188310 35660,281090 0,89140 -9850,178430 -25380,268260zm-1578080 1318470l8950 -30 8080 -3430c101370,-43030 139220,-140350 167020,-211290 18660,-48120 35290,-96870 51550,-144130 21220,-62030 41710,-122330 66350,-180030 55610,113180 169380,297790 319310,297790 162100,0 243010,-215870 302510,-337030 10910,35280 20490,71640 29930,107520 10480,40040 21120,81580 33790,120290 52980,163130 121860,331750 230540,342820 58170,5820 110350,-32920 157150,-115270 116530,-203870 298880,-950040 324920,-1195680l-88200 0c-47220,270290 -201500,957620 -312550,1152310 -26740,46630 -54280,74440 -72240,71440 -20050,-1930 -75490,-33890 -156110,-282820 -12040,-36150 -21820,-74630 -32560,-115270 -40310,-154820 -88230,-324170 -234700,-409970 -160,0 -160,-270 -430,-270 -144570,-86130 -304710,-51380 -433680,88340 -20150,21980 -39610,46190 -58170,73400 -75930,110780 -118100,234430 -158640,353990 -15830,46360 -32120,94520 -50250,140710 -28070,71910 -54280,129610 -109920,157880 -171770,-42370 -373380,-1132460 -390110,-1229740l-89500 -160c26180,123580 214580,1318630 486960,1318630zm650790 -333280c-132470,39650 -257450,-208950 -298520,-307360 66610,-120660 191930,-254420 340320,-215410 83050,21810 145840,85830 183920,160400 13470,23350 -152190,340420 -225720,362370zm-253750 -1592450l-182270 310980 199630 0c21790,-50660 30970,-104980 27830,-158570 -3120,-52920 -18260,-105130 -45190,-152410zm-345670 -174610c-53930,6500 -104830,25310 -149200,54160 -43770,28470 -81190,66710 -108890,112540l355000 0 -96910 -166700zm320480 136480c-32780,-43410 -74730,-77950 -122080,-101740 -46730,-23480 -98730,-36480 -152370,-37180l177210 304870 97240 -165950zm-599850 71250c-21790,49940 -31310,103530 -28770,156540 2520,52300 16790,104050 42620,151170l182730 -307710 -196580 0zm38530 346430c32790,44850 75260,80590 123420,105160 48550,24760 102880,38190 158880,38200l3280 -10 -186830 -309610 -98750 166260zm331470 139900c52760,-7560 102380,-26920 145550,-55860 42590,-28560 78930,-66460 105860,-111580l-352480 0 101070 167440z"/>
 </g>
</svg>
