<?xml version="1.0" encoding="UTF-8"?>
<!DOCTYPE svg PUBLIC "-//W3C//DTD SVG 1.1//EN" "http://www.w3.org/Graphics/SVG/1.1/DTD/svg11.dtd">
<!-- Creator: CorelDRAW -->
<svg xmlns="http://www.w3.org/2000/svg" xml:space="preserve" width="30mm" height="30mm" version="1.1" style="shape-rendering:geometricPrecision; text-rendering:geometricPrecision; image-rendering:optimizeQuality; fill-rule:evenodd; clip-rule:evenodd"
viewBox="0 0 3000000 3000000"
 xmlns:xlink="http://www.w3.org/1999/xlink"
 enable-background="new 0 0 100 100"
 data-name="Layer 2"
 xmlns:xodm="http://www.corel.com/coreldraw/odm/2003">
 <defs>
  <style type="text/css">
   <![CDATA[
    .fil0 {fill:black}
   ]]>
  </style>
 </defs>
 <g id="Capa_x0020_1">
  <metadata id="CorelCorpID_0Corel-Layer"/>
  <path class="fil0" d="M257100 480400l2471670 0c44900,0 85940,18520 115820,48350l190 -190c29690,29690 48150,70780 48150,116030l0 1724970c0,45010 -18460,85950 -48150,115660l0 360c-29690,29690 -70780,48160 -116010,48160l-2471670 0c-45000,0 -85950,-18470 -115660,-48160l-360 -360c-29690,-29710 -48150,-70650 -48150,-115660l0 -1724970c0,-45250 18450,-86320 48160,-116030l190 190c29880,-29830 70920,-48350 115820,-48350zm1064380 1846670c-51540,0 -93330,-41800 -93330,-93340 -520,-463580 -376420,-839480 -840010,-840000 -51530,0 -93330,-41790 -93330,-93330 0,-51540 41800,-93330 93330,-93330 566750,630 1026040,459910 1026670,1026620 0,51580 -41790,93380 -93330,93380zm-746670 0c-51540,0 -93330,-41800 -93330,-93340 0,-51530 -41800,-93330 -93340,-93330 -51530,0 -93330,-41790 -93330,-93330 0,-51540 41800,-93340 93330,-93340 154620,0 280000,125390 280000,280000 0,51540 -41790,93340 -93330,93340zm373330 0c-51530,0 -93330,-41800 -93330,-93340 -280,-257610 -209060,-466380 -466660,-466670 -51540,0 -93340,-41790 -93340,-93330 0,-51530 41800,-93330 93330,-93330 360590,320 653020,292740 653340,653360 0,51510 -41800,93310 -93340,93310zm1278010 -375610c-171260,0 -319960,-97080 -394140,-239290l394140 0 0 -136730 -438580 0c-3420,-22220 -5810,-45130 -5810,-68370 0,-23250 2400,-46150 5810,-68370l438580 0 0 -136730 -394140 0c74180,-142210 222540,-239290 394140,-239290 110410,0 211260,40340 288850,106990l121360 -120660c-108710,-97430 -252620,-157250 -410210,-157250 -267660,0 -494980,171260 -579420,410210l-240990 0 0 136730 209200 0c-2730,22560 -4100,45130 -4100,68370 0,23240 1370,45800 4100,68370l-209200 0 0 136730 240990 0c84440,238950 311760,410210 579420,410210 157590,0 301500,-59820 410210,-157250l-121350 -121010c-77600,66660 -178450,107340 -288860,107340zm-1969050 -1377720l2471670 0c38960,0 70830,31880 70830,70850l0 1724970c0,38970 -31870,70840 -70830,70840l-2471670 0c-38960,0 -70840,-31870 -70840,-70840l0 -1724970c0,-38970 31880,-70850 70840,-70850z"/>
 </g>
</svg>
