<!-- Generated by IcoMoon.io -->
<svg version="1.1" xmlns="http://www.w3.org/2000/svg" width="32" height="32" viewBox="0 0 32 32">
<title>app-whatsapp-linear</title>
<path d="M15.925 1.142c-8.235 0-14.933 6.699-14.933 14.933 0 2.809 0.78 5.537 2.261 7.905-0.589 2.066-1.655 5.975-1.667 6.016-0.055 0.203 0.005 0.419 0.155 0.564s0.369 0.197 0.568 0.136l5.92-1.821c2.318 1.397 4.974 2.133 7.696 2.133 8.234 0 14.933-6.698 14.933-14.933s-6.699-14.933-14.933-14.933zM25.68 19.594c-1.059-0.589-1.962-1.18-2.621-1.61-0.503-0.329-0.867-0.566-1.134-0.7-0.745-0.372-1.309-0.109-1.524 0.108-0.027 0.027-0.051 0.056-0.071 0.088-0.774 1.161-1.784 2.271-2.080 2.33-0.342-0.053-1.942-0.963-3.532-2.286-1.623-1.353-2.644-2.648-2.794-3.53 1.041-1.072 1.416-1.746 1.416-2.514 0-0.791-1.844-4.092-2.179-4.427s-1.088-0.386-2.242-0.156c-0.11 0.023-0.212 0.077-0.293 0.156-0.14 0.14-3.405 3.469-1.854 7.505 1.704 4.429 6.076 9.577 11.651 10.414 0.634 0.095 1.228 0.142 1.784 0.142 3.28 0 5.215-1.651 5.76-4.924 0.041-0.24-0.074-0.478-0.287-0.596zM18.594 23.835c-5.896-0.884-9.608-6.725-10.749-9.69-1.132-2.941 0.955-5.562 1.479-6.155 0.426-0.072 0.875-0.103 1.062-0.073 0.39 0.543 1.745 3.102 1.805 3.563 0 0.301-0.099 0.72-1.268 1.891-0.108 0.108-0.168 0.253-0.168 0.406 0 3.007 6.343 7.179 7.467 7.179 0.977 0 2.251-1.642 2.977-2.712 0.042 0.002 0.112 0.016 0.212 0.067 0.207 0.104 0.566 0.337 1.019 0.634 0.598 0.391 1.393 0.91 2.332 1.449-0.427 2.050-1.618 4.124-6.168 3.44zM15.925 29.86c-2.596 0-5.125-0.726-7.312-2.097-0.093-0.058-0.199-0.088-0.306-0.088-0.057 0-0.114 0.009-0.169 0.025l-5.169 1.591c0.381-1.386 1.062-3.864 1.458-5.244 0.046-0.16 0.020-0.332-0.070-0.471-1.451-2.233-2.218-4.826-2.218-7.502 0-7.6 6.185-13.784 13.785-13.784s13.784 6.184 13.784 13.784c0 7.6-6.184 13.785-13.784 13.785z"></path>
</svg>
